<?xml version="1.0" encoding="UTF-8"?>
<svg version="1.1" xmlns="http://www.w3.org/2000/svg" width="512" height="512">
<path d="M0 0 C4.15833804 1.87148288 7.99085356 4.18159293 11.875 6.5625 C13.02233513 7.24794234 14.17079697 7.93150185 15.3203125 8.61328125 C17.70461527 10.02938635 20.08389494 11.45342181 22.45996094 12.88330078 C27.92895918 16.16526027 33.46796691 19.32591714 39 22.5 C41.16699224 23.7494355 43.33365808 24.99943728 45.5 26.25 C46.5725 26.86875 47.645 27.4875 48.75 28.125 C52 30 55.25 31.875 58.5 33.75 C59.57386963 34.3694751 60.64773926 34.9889502 61.75415039 35.62719727 C63.90721037 36.86947806 66.06004478 38.11214988 68.21264648 39.35522461 C73.24101461 42.25836112 78.27139814 45.15778867 83.31021118 48.04275513 C85.08432545 49.05877184 86.85769919 50.07606928 88.63085938 51.09375 C90.84815314 52.36582292 93.06681075 53.63552285 95.28710938 54.90234375 C112.00143 64.502145 112.00143 64.502145 115 69 C115.18450195 71.83959994 115.25218908 74.57965823 115.22705078 77.41870117 C115.22734283 78.27745346 115.22763489 79.13620575 115.22793579 80.02098083 C115.22654155 82.86174597 115.2109759 85.70224939 115.1953125 88.54296875 C115.19158271 90.51166134 115.18873558 92.48035579 115.18673706 94.4490509 C115.17909796 99.63256956 115.15944707 104.81597628 115.1373291 109.99945068 C115.11687665 115.28802984 115.10773663 120.57662707 115.09765625 125.86523438 C115.07620147 136.24353879 115.04206215 146.62176009 115 157 C115.77185135 157.30241104 116.5437027 157.60482208 117.33894348 157.91639709 C120.13547004 159.05516446 122.6880333 160.3996745 125.32421875 161.87109375 C126.34507568 162.44045654 127.36593262 163.00981934 128.41772461 163.59643555 C130.03626343 164.50776245 130.03626343 164.50776245 131.6875 165.4375 C133.34761108 166.37106323 133.34761108 166.37106323 135.04125977 167.32348633 C141.8902412 171.1948648 148.70311862 175.11972939 155.4375 179.1875 C156.18153076 179.632146 156.92556152 180.07679199 157.69213867 180.53491211 C160.87298601 182.48319528 162.90315059 183.85472588 165 187 C165.26006222 188.91691399 165.26006222 188.91691399 165.27415466 191.12350464 C165.28412979 191.96181824 165.29410492 192.80013184 165.30438232 193.66384888 C165.305047 194.58028168 165.30571167 195.49671448 165.30639648 196.44091797 C165.31472 197.40868164 165.32304352 198.37644531 165.33161926 199.37353516 C165.35575843 202.57979326 165.36449609 205.7858481 165.37109375 208.9921875 C165.38005689 211.21794701 165.38917867 213.44370588 165.39845276 215.66946411 C165.41495582 220.33841416 165.42264531 225.00729239 165.42553711 229.67626953 C165.43092309 235.66101353 165.46860705 241.64508327 165.51428127 247.62963676 C165.54401307 252.22785919 165.55125983 256.82591847 165.55226326 261.42422867 C165.55647303 263.63066828 165.56893746 265.83710804 165.58978081 268.04345322 C165.61661473 271.12957188 165.6118931 274.2141175 165.59936523 277.30029297 C165.62161667 278.66886948 165.62161667 278.66886948 165.64431763 280.06509399 C165.59269527 284.52724657 165.48217389 286.39016808 162.63287354 289.99383545 C159.93376553 292.05046853 157.26316639 293.80476454 154.30078125 295.4609375 C153.18751465 296.08943604 152.07424805 296.71793457 150.92724609 297.36547852 C149.72234406 298.03534299 148.51742833 298.70518283 147.3125 299.375 C146.05497159 300.082311 144.79798111 300.79057916 143.54150391 301.49975586 C140.95744507 302.95786112 138.37161204 304.41274337 135.78466797 305.86572266 C130.12183917 309.05235691 124.49956285 312.30896644 118.875 315.5625 C117.82570313 316.16570068 116.77640625 316.76890137 115.6953125 317.39038086 C110.65744561 320.28892713 105.6342842 323.20785004 100.64727783 326.19294739 C98.27816166 327.60921292 95.90248426 329.01425667 93.52618408 330.41842651 C91.85646314 331.41135651 90.1963833 332.42044294 88.53662109 333.42993164 C78.7783752 339.18477477 78.7783752 339.18477477 73 338 C70.1932807 336.87020666 67.6562136 335.42603247 65.0625 333.875 C64.29019043 333.42979004 63.51788086 332.98458008 62.72216797 332.52587891 C60.13925315 331.0319548 57.56970573 329.5165168 55 328 C53.15824673 326.92589134 51.31577993 325.85300538 49.47265625 324.78125 C46.52362654 323.06480308 43.57592511 321.34624756 40.63183594 319.62133789 C31.18779125 314.08886385 21.68741245 308.65765445 12.17626953 303.24169922 C11.0520459 302.60119629 9.92782227 301.96069336 8.76953125 301.30078125 C7.27836792 300.45253784 7.27836792 300.45253784 5.75708008 299.5871582 C3 298 3 298 0.5144043 296.23120117 C-2.82119367 294.59789497 -4.4648503 294.98633189 -8 296 C-10.74049153 297.24319769 -10.74049153 297.24319769 -13.4296875 298.88671875 C-14.45989014 299.48822754 -15.49009277 300.08973633 -16.55151367 300.70947266 C-17.64826416 301.36222168 -18.74501465 302.0149707 -19.875 302.6875 C-21.03503115 303.3685827 -22.19560353 304.04874435 -23.35668945 304.72802734 C-25.74380625 306.12645185 -28.12785896 307.52988193 -30.50927734 308.93798828 C-38.65008644 313.75085191 -46.82791511 318.50087638 -55.00488281 323.25195312 C-57.06251104 324.45285124 -59.11635776 325.66024489 -61.16699219 326.87304688 C-64.29108231 328.7206168 -67.4256813 330.54914687 -70.5625 332.375 C-71.50826904 332.94105957 -72.45403809 333.50711914 -73.4284668 334.09033203 C-74.31961182 334.60450684 -75.21075684 335.11868164 -76.12890625 335.6484375 C-76.90306885 336.10395996 -77.67723145 336.55948242 -78.47485352 337.02880859 C-82.91506272 338.73654834 -86.57981762 338.5920069 -90.95239258 336.76928711 C-92.40875122 335.90702515 -92.40875122 335.90702515 -93.89453125 335.02734375 C-95.00135254 334.38273193 -96.10817383 333.73812012 -97.24853516 333.07397461 C-98.43663829 332.36200803 -99.62462348 331.6498446 -100.8125 330.9375 C-102.05949874 330.20495234 -103.30739904 329.47393744 -104.55615234 328.74438477 C-107.12423684 327.24167333 -109.68762912 325.73140397 -112.24755859 324.21484375 C-116.78894242 321.5281411 -121.36211334 318.89757565 -125.9375 316.26928711 C-129.1249959 314.43750235 -132.30691034 312.59630403 -135.48828125 310.75390625 C-139.4502916 308.46322739 -143.42103115 306.18940045 -147.40429688 303.93598938 C-149.79973775 302.58012741 -152.19180905 301.21838049 -154.5836792 299.85623169 C-156.26560906 298.90161402 -157.95232381 297.95544226 -159.63916016 297.00952148 C-160.66187012 296.42630127 -161.68458008 295.84308105 -162.73828125 295.2421875 C-163.63587158 294.7354248 -164.53346191 294.22866211 -165.45825195 293.70654297 C-172.55665637 288.94063701 -172.55665637 288.94063701 -173.46555424 284.96214104 C-173.65159471 282.40694044 -173.67549042 279.89394828 -173.64697266 277.33203125 C-173.65573425 276.36397552 -173.66449585 275.3959198 -173.67352295 274.39852905 C-173.69550624 271.20272835 -173.68096736 268.00831445 -173.6640625 264.8125 C-173.66743092 262.58959691 -173.67228376 260.36669561 -173.67855835 258.14379883 C-173.68592826 253.4866379 -173.67521983 248.8299567 -173.65185547 244.17285156 C-173.62336824 238.20375891 -173.63977148 232.2357903 -173.66971779 226.26673889 C-173.68778718 221.6770379 -173.68203424 217.08760331 -173.66907883 212.49789429 C-173.66574386 210.29706692 -173.66983505 208.09621536 -173.68147659 205.89541626 C-173.69417885 202.81894891 -173.67481566 199.74430062 -173.64697266 196.66796875 C-173.65709381 195.7587265 -173.66721497 194.84948425 -173.67764282 193.91268921 C-173.60300661 189.46037259 -173.47534987 187.59956006 -170.62734985 184.00737 C-167.96763314 181.9752708 -165.33751685 180.22656937 -162.421875 178.58203125 C-161.35066406 177.97174072 -160.27945313 177.3614502 -159.17578125 176.73266602 C-158.04527344 176.09901123 -156.91476563 175.46535645 -155.75 174.8125 C-153.99499414 173.81819498 -152.24145397 172.82133689 -150.48791504 171.82444763 C-148.74878499 170.83631243 -147.00818703 169.85076223 -145.26757812 168.86523438 C-140.10129833 165.91616252 -134.99246882 162.87100111 -129.90136719 159.79418945 C-125.21651305 157 -125.21651305 157 -123 157 C-123.00888245 155.90863235 -123.01776489 154.81726471 -123.0269165 153.69282532 C-123.10800229 143.40785603 -123.16796543 133.12295158 -123.20724869 122.83773518 C-123.2281236 117.54997244 -123.25643978 112.26246774 -123.30175781 106.97485352 C-123.34521856 101.87201081 -123.36913783 96.76941631 -123.37950897 91.66640282 C-123.3868999 89.71952596 -123.40133266 87.77266269 -123.42292023 85.82589149 C-123.45195721 83.09887968 -123.45595588 80.37289348 -123.45410156 77.64575195 C-123.47567322 76.43841904 -123.47567322 76.43841904 -123.49768066 75.20669556 C-123.47003433 71.44930052 -123.16512153 69.25803455 -121.11962891 66.06155396 C-118.85964644 63.86349194 -116.75696859 62.43687839 -113.984375 60.94140625 C-112.9931665 60.39814697 -112.00195801 59.8548877 -110.98071289 59.29516602 C-109.91457764 58.72338623 -108.84844238 58.15160645 -107.75 57.5625 C-105.47161754 56.31439427 -103.19429885 55.06434498 -100.91796875 53.8125 C-99.76087402 53.17828125 -98.6037793 52.5440625 -97.41162109 51.890625 C-92.24746395 49.02879353 -87.15275229 46.0532675 -82.0625 43.0625 C-80.07175642 41.89559133 -78.08086966 40.72892689 -76.08984375 39.5625 C-75.0932373 38.97855469 -74.09663086 38.39460938 -73.06982422 37.79296875 C-67.76672706 34.69562935 -62.44601298 31.62892752 -57.125 28.5625 C-56.05644775 27.94648926 -54.98789551 27.33047852 -53.88696289 26.69580078 C-49.4197938 24.12120456 -44.95188955 21.54788685 -40.48339844 18.97558594 C-38.12653709 17.61884742 -35.76993076 16.26166779 -33.41357422 14.90405273 C-31.20993131 13.63453881 -29.00586045 12.36576732 -26.80126953 11.09790039 C-25.79435059 10.5177417 -24.78743164 9.93758301 -23.75 9.33984375 C-22.780625 8.78538574 -21.81125 8.23092773 -20.8125 7.65966797 C-18.95248939 6.56206796 -17.11767305 5.42049202 -15.3125 4.23486328 C-10.35876794 1.00946266 -6.04441251 -1.71508499 0 0 Z M-10.578125 21.3515625 C-11.47893799 21.8657373 -12.37975098 22.37991211 -13.30786133 22.90966797 C-14.27876709 23.47572754 -15.24967285 24.04178711 -16.25 24.625 C-17.26924561 25.21039551 -18.28849121 25.79579102 -19.33862305 26.39892578 C-22.56494569 28.25601893 -25.78336066 30.12619157 -29 32 C-30.48910889 32.8652832 -30.48910889 32.8652832 -32.00830078 33.74804688 C-36.94529421 36.61802874 -41.87669179 39.49741218 -46.8046875 42.3828125 C-53.33231255 46.20085734 -59.88410526 49.97641467 -66.4375 53.75 C-69.6367893 55.59550628 -72.83562994 57.44178653 -76.03417969 59.28857422 C-77.94815997 60.393036 -79.86282434 61.49631354 -81.77832031 62.59814453 C-84.20938948 63.99780959 -86.63652845 65.40402382 -89.0625 66.8125 C-90.11618774 67.41626465 -90.11618774 67.41626465 -91.19116211 68.03222656 C-94.68474847 69.91657709 -94.68474847 69.91657709 -97 73 C-96.2879541 73.40613525 -95.5759082 73.81227051 -94.84228516 74.23071289 C-78.6300596 83.48021148 -62.44038008 92.76729332 -46.27929688 102.10595703 C-42.85903194 104.08141976 -39.43754365 106.05474772 -36.015625 108.02734375 C-34.85042131 108.69913413 -33.68521947 109.37092772 -32.52001953 110.04272461 C-30.33880563 111.30022438 -28.15749843 112.55756235 -25.97607422 113.81469727 C-24.97592285 114.39147217 -23.97577148 114.96824707 -22.9453125 115.5625 C-21.96852539 116.119375 -20.99173828 116.67625 -19.98535156 117.25 C-17.89298975 118.47653332 -15.82891001 119.75200427 -13.78808594 121.0625 C-12.21849121 122.0525 -12.21849121 122.0525 -10.6171875 123.0625 C-9.68245605 123.67222656 -8.74772461 124.28195313 -7.78466797 124.91015625 C-5.00466592 126.29242665 -5.00466592 126.29242665 -1.95654297 125.35424805 C0.77070745 124.10502773 3.34409543 122.80166109 5.921875 121.26953125 C7.31575439 120.44787476 7.31575439 120.44787476 8.73779297 119.60961914 C9.73182129 119.01656982 10.72584961 118.42352051 11.75 117.8125 C13.91367549 116.53580222 16.07775166 115.25978329 18.2421875 113.984375 C19.35819336 113.32501953 20.47419922 112.66566406 21.62402344 111.98632812 C27.02126349 108.81074633 32.44765013 105.68625235 37.875 102.5625 C40.04167966 101.31382464 42.20834623 100.06512655 44.375 98.81640625 C45.4578125 98.19266113 46.540625 97.56891602 47.65625 96.92626953 C52.26777425 94.26965984 56.8785214 91.61170443 61.48876953 88.95288086 C63.66664882 87.69687102 65.84469506 86.44115061 68.02294922 85.18579102 C75.02831943 81.14605385 82.01842828 77.08072324 89 73 C86.33859868 70.16041369 83.82741435 68.13148439 80.421875 66.2578125 C79.52106201 65.75652832 78.62024902 65.25524414 77.69213867 64.73876953 C76.72123291 64.20622559 75.75032715 63.67368164 74.75 63.125 C72.65672919 61.95981044 70.56430673 60.79309575 68.47265625 59.625 C67.39773926 59.02558594 66.32282227 58.42617187 65.21533203 57.80859375 C60.17213138 54.97184125 55.17890485 52.05165387 50.1875 49.125 C39.43713837 42.83141549 28.65915499 36.58731608 17.859375 30.37890625 C14.3575763 28.36497942 10.86559724 26.33719365 7.390625 24.27734375 C6.73787598 23.89368652 6.08512695 23.5100293 5.41259766 23.11474609 C3.78467356 22.15648976 2.16159475 21.19001408 0.5390625 20.22265625 C-3.88961317 18.09007858 -6.57761448 19.04445454 -10.578125 21.3515625 Z M-106 87 C-106 106.47 -106 125.94 -106 146 C-100.80202908 143.92081163 -96.25702891 141.30270707 -91.44921875 138.4609375 C-87.40410659 136.74760574 -84.27157685 136.05546456 -80 137 C-76.16357547 138.68700851 -72.67610389 140.84646586 -69.125 143.0625 C-66.99154913 144.35135971 -64.85740986 145.63908044 -62.72265625 146.92578125 C-61.62066895 147.59689941 -60.51868164 148.26801758 -59.38330078 148.95947266 C-53.82685412 152.31066195 -48.19280074 155.52500871 -42.5625 158.75 C-34.27864751 163.51476998 -26.01486768 168.3101779 -17.80883789 173.20800781 C-15.07754381 175.14311847 -15.07754381 175.14311847 -12 176 C-12 164.45 -12 152.9 -12 141 C-16.125 138.64875 -20.25 136.2975 -24.5 133.875 C-34.71005079 128.04689669 -44.89061956 122.17185984 -55.03686523 116.2331543 C-63.62344178 111.20973924 -72.24403607 106.24649092 -80.86743164 101.28662109 C-87.59193116 97.4113116 -94.28266677 93.48798371 -100.90258789 89.4362793 C-103.28579785 87.72458973 -103.28579785 87.72458973 -106 87 Z M91.6171875 90.3515625 C90.25630005 91.12282471 90.25630005 91.12282471 88.86791992 91.90966797 C87.88025635 92.47572754 86.89259277 93.04178711 85.875 93.625 C84.84673096 94.21039551 83.81846191 94.79579102 82.7590332 95.39892578 C73.5317136 100.66507539 64.35650594 106.01991154 55.1875 111.38671875 C49.81109987 114.53125968 44.42350141 117.65570546 39.0222168 120.75732422 C36.81058265 122.03744572 34.6086848 123.33454751 32.41723633 124.64892578 C27.41164376 127.62662333 22.64906985 130.24962015 17.13671875 132.16015625 C9.37452185 135.01049785 9.37452185 135.01049785 4 141 C1.68329704 152.47120728 2.85256024 164.43733783 4 176 C12.08715924 171.63445511 20.08896736 167.13183709 28.0625 162.5625 C29.27529183 161.86829639 30.4881014 161.17412379 31.70092773 160.47998047 C35.46875158 158.32253987 39.23474362 156.16191785 43 154 C43.62535645 153.64093567 44.25071289 153.28187134 44.89501953 152.91192627 C49.11919623 150.48586776 53.34135496 148.05632958 57.5625 145.625 C58.66795166 144.98892822 59.77340332 144.35285645 60.91235352 143.69750977 C61.93256592 143.10897217 62.95277832 142.52043457 64.00390625 141.9140625 C64.89924072 141.3979541 65.7945752 140.8818457 66.71704102 140.35009766 C68.51188064 139.28866432 70.26500255 138.15666497 72 137 C78.82016712 136.24381942 82.65668292 137.9273929 88.375 141.5 C92.9020961 144.66258476 92.9020961 144.66258476 98 146 C98 126.86 98 107.72 98 88 C95.3136775 88 93.95361763 89.02176826 91.6171875 90.3515625 Z M-98.125 160.8125 C-99.35026298 161.56631582 -100.57800857 162.31611007 -101.80810547 163.06201172 C-104.32411299 164.59378337 -106.82646373 166.14482866 -109.3203125 167.71240234 C-114.83567787 171.16439906 -120.4866669 174.37891705 -126.125 177.625 C-133.11610664 181.6959433 -140.07183756 185.82286338 -147 190 C-144.60030318 192.65565787 -142.03555811 194.27998553 -138.93359375 196.046875 C-137.90282715 196.63750732 -136.87206055 197.22813965 -135.81005859 197.83666992 C-134.69711426 198.46806885 -133.58416992 199.09946777 -132.4375 199.75 C-131.27918629 200.41138675 -130.12115 201.07325956 -128.96337891 201.7355957 C-127.15829262 202.76802222 -125.35294099 203.79996225 -123.54650879 204.83003235 C-119.27971977 207.26346851 -115.02520018 209.71727477 -110.77734375 212.18359375 C-109.60816458 212.86167138 -108.43897527 213.53973152 -107.26977539 214.21777344 C-105.05596503 215.50227699 -102.84287629 216.78802528 -100.63061523 218.07519531 C-98.64079999 219.2268528 -96.64229305 220.36367642 -94.63378906 221.48242188 C-92 223 -92 223 -89.88964844 224.51757812 C-87.82521977 225.8938639 -86.46199434 226.65263224 -84 227 C-79.76551397 225.70954742 -76.23390432 223.46536049 -72.5 221.125 C-70.87034302 220.15699463 -70.87034302 220.15699463 -69.20776367 219.16943359 C-66.92964268 217.81396886 -64.66077827 216.44977436 -62.39990234 215.06640625 C-58.09517679 212.45006293 -53.74066407 209.92544168 -49.38085938 207.40234375 C-46.37938924 205.66374552 -43.38592756 203.91211325 -40.39453125 202.15625 C-33.95977282 198.3842672 -27.4886426 194.67842063 -21 191 C-24.23266975 188.3091852 -27.42777197 186.06115192 -31.11328125 184.0390625 C-32.10255615 183.4917749 -33.09183105 182.9444873 -34.11108398 182.38061523 C-35.16755127 181.80126221 -36.22401855 181.22190918 -37.3125 180.625 C-47.24661442 175.12793368 -57.08908547 169.49874909 -66.85473633 163.70751953 C-68.68534442 162.62854867 -70.52651978 161.56726111 -72.37890625 160.52612305 C-75 159 -75 159 -77.44921875 157.24926758 C-85.59296786 151.9451584 -90.69872521 155.99460745 -98.125 160.8125 Z M71.03125 156.7109375 C69.99387695 157.29117676 68.95650391 157.87141602 67.88769531 158.46923828 C66.76975586 159.09813965 65.65181641 159.72704102 64.5 160.375 C63.35885742 161.01550293 62.21771484 161.65600586 61.04199219 162.31591797 C54.08088699 166.23411547 47.15956449 170.20973573 40.29125977 174.28808594 C31.26260455 179.64348599 22.12481675 184.81077275 13 190 C17.00647572 193.43856751 21.19277428 195.89026442 25.8125 198.375 C32.2751369 201.90552708 38.67540381 205.52609066 45.02905273 209.24951172 C47.091076 210.45703359 49.15700834 211.65790505 51.22680664 212.85205078 C55.7918884 215.49108434 60.29396927 218.15283239 64.6640625 221.10546875 C65.3638623 221.55720459 66.06366211 222.00894043 66.78466797 222.47436523 C68.04170681 223.29026933 69.27616556 224.14280186 70.47705078 225.03930664 C72.40040161 226.38339311 72.40040161 226.38339311 76 227 C80.32113594 225.54866447 84.09400976 223.32455551 88 221 C88.92167969 220.47905762 89.84335937 219.95811523 90.79296875 219.42138672 C93.5894331 217.83253224 96.35844844 216.20283216 99.125 214.5625 C101.20014419 213.3418074 103.27568036 212.12178097 105.3515625 210.90234375 C106.42567383 210.27054199 107.49978516 209.63874023 108.60644531 208.98779297 C114.55391649 205.50402963 120.52722052 202.06513129 126.5 198.625 C127.65772986 197.95778972 128.81544509 197.29055407 129.97314453 196.62329102 C132.64846165 195.08166979 135.32406643 193.54055085 138 192 C138 191.01 138 190.02 138 189 C137.36835938 188.64921387 136.73671875 188.29842773 136.0859375 187.93701172 C122.14985639 180.18832973 108.29704884 172.32222554 94.54296875 164.25390625 C93.64884277 163.72941895 92.7547168 163.20493164 91.83349609 162.66455078 C89.77777185 161.45690578 87.72361221 160.24659615 85.67041016 159.03466797 C84.03338135 158.07197998 84.03338135 158.07197998 82.36328125 157.08984375 C81.36208252 156.49937256 80.36088379 155.90890137 79.3293457 155.30053711 C75.59920267 153.21789672 74.71302277 154.64962752 71.03125 156.7109375 Z M-17.43359375 207.53515625 C-18.38000732 208.08993652 -19.3264209 208.6447168 -20.30151367 209.21630859 C-21.8538269 210.13017334 -21.8538269 210.13017334 -23.4375 211.0625 C-25.62983843 212.34828717 -27.82256035 213.63342064 -30.015625 214.91796875 C-30.58492233 215.2515741 -31.15421967 215.58517944 -31.74076843 215.92889404 C-39.0763858 220.22290771 -46.45050358 224.45032997 -53.82788086 228.67211914 C-55.79921076 229.80481959 -57.76067332 230.95495789 -59.70936584 232.12617493 C-63 234 -63 234 -66.39611816 235.50979614 C-70.29971548 237.41938638 -72.87495122 238.96169252 -76 242 C-77.8051718 247.60658688 -77.52610953 252.9201073 -77.26953125 258.75 C-77.24525282 260.37516901 -77.22676275 262.00043384 -77.21379089 263.62573242 C-77.16438807 267.88299027 -77.03694787 272.13438645 -76.89263916 276.38934326 C-76.75911115 280.73922402 -76.70016756 285.0900624 -76.63476562 289.44140625 C-76.49576534 297.96361398 -76.27422846 306.481076 -76 315 C-70.19099971 311.84334864 -64.3858041 308.68505542 -58.64453125 305.40625 C-56.98514526 304.45890991 -56.98514526 304.45890991 -55.29223633 303.49243164 C-54.13225064 302.82841629 -52.97234008 302.16426967 -51.8125 301.5 C-51.21537201 301.15838837 -50.61824402 300.81677673 -50.00302124 300.46481323 C-41.08727074 295.36323378 -32.1901818 290.2300554 -23.3125 285.0625 C-21.77203003 284.16724609 -21.77203003 284.16724609 -20.20043945 283.25390625 C-19.26417725 282.70734375 -18.32791504 282.16078125 -17.36328125 281.59765625 C-16.54126221 281.11820557 -15.71924316 280.63875488 -14.87231445 280.14477539 C-13.05753822 279.13567825 -13.05753822 279.13567825 -12 278 C-11.90560022 275.73008113 -11.88257774 273.45718033 -11.88647461 271.18530273 C-11.88632858 270.47314606 -11.88618256 269.76098938 -11.8860321 269.0272522 C-11.8867313 266.66266888 -11.89452394 264.29816339 -11.90234375 261.93359375 C-11.90420791 260.29834537 -11.90563182 258.66309643 -11.90663147 257.02784729 C-11.91045682 252.71565215 -11.92028725 248.40349048 -11.93133545 244.09130859 C-11.9415492 239.69434054 -11.94612901 235.29736711 -11.95117188 230.90039062 C-11.96190951 222.26691169 -11.97898613 213.63346 -12 205 C-13.96747325 205 -15.79710221 206.57246771 -17.43359375 207.53515625 Z M4 205 C3.69808062 214.37914427 3.4674702 223.75660492 3.32644176 233.13955688 C3.25873186 237.49729613 3.16701661 241.85170042 3.01928711 246.20751953 C2.8774599 250.41590744 2.8002015 254.6211017 2.76659584 258.83169556 C2.74267002 260.43326128 2.69593515 262.03466175 2.62550926 263.63485718 C2.41130981 268.70603148 2.43648145 273.13683765 4 278 C7.91943614 281.82267069 11.97531356 283.79600012 17 286 C18.2444517 286.70251672 19.48064203 287.42058044 20.69702148 288.1706543 C21.66196533 288.71633057 22.62690918 289.26200684 23.62109375 289.82421875 C24.73121826 290.45457031 25.84134277 291.08492188 26.98510742 291.734375 C28.12439697 292.37890625 29.26368652 293.0234375 30.4375 293.6875 C40.52743316 299.4140666 50.55598425 305.23169503 60.51147461 311.19018555 C61.78003296 311.94682495 61.78003296 311.94682495 63.07421875 312.71875 C63.81244873 313.16154297 64.55067871 313.60433594 65.3112793 314.06054688 C66.82357174 315.0810245 66.82357174 315.0810245 68 315 C68.30191938 305.62085573 68.5325298 296.24339508 68.67355824 286.86044312 C68.74126814 282.50270387 68.83298339 278.14829958 68.98071289 273.79248047 C69.1225401 269.58409256 69.1997985 265.3788983 69.23340416 261.16830444 C69.25732998 259.56673872 69.30406485 257.96533825 69.37449074 256.36514282 C69.58869019 251.29396852 69.56351855 246.86316235 68 242 C64.08056386 238.17732931 60.02468644 236.20399988 55 234 C53.7555483 233.29748328 52.51935797 232.57941956 51.30297852 231.8293457 C50.33803467 231.28366943 49.37309082 230.73799316 48.37890625 230.17578125 C47.26878174 229.54542969 46.15865723 228.91507813 45.01489258 228.265625 C43.87560303 227.62109375 42.73631348 226.9765625 41.5625 226.3125 C31.47256684 220.5859334 21.44401575 214.76830497 11.48852539 208.80981445 C10.64281982 208.30538818 9.79711426 207.80096191 8.92578125 207.28125 C8.18755127 206.83845703 7.44932129 206.39566406 6.6887207 205.93945312 C5.17642826 204.9189755 5.17642826 204.9189755 4 205 Z M-156 206 C-156 230.09 -156 254.18 -156 279 C-148.41 283.29 -140.82 287.58 -133 292 C-128.80483623 294.42631613 -124.61505565 296.85674934 -120.4375 299.3125 C-118.44420862 300.47820356 -116.45071986 301.64356969 -114.45703125 302.80859375 C-109.06992475 305.9590849 -109.06992475 305.9590849 -106.62255859 307.39111328 C-104.62596426 308.55695212 -102.62622211 309.71712907 -100.625 310.875 C-99.56539062 311.49117188 -98.50578125 312.10734375 -97.4140625 312.7421875 C-95.15806863 314.15402517 -95.15806863 314.15402517 -93 314 C-92.79122399 304.71633228 -92.63143689 295.43347537 -92.53369045 286.1479702 C-92.4867691 281.83592039 -92.42316501 277.52547928 -92.32104492 273.21435547 C-92.22305788 269.05153308 -92.16940432 264.89025473 -92.14610481 260.72636795 C-92.12950833 259.14016022 -92.09709477 257.55403467 -92.04842949 255.96848679 C-91.48704513 247.32093321 -91.48704513 247.32093321 -94.87001038 239.76849365 C-97.18738804 238.19228712 -99.41489831 237.07002983 -102 236 C-103.45321655 235.13665039 -103.45321655 235.13665039 -104.93579102 234.25585938 C-105.78326904 233.78986328 -106.63074707 233.32386719 -107.50390625 232.84375 C-108.48069336 232.30266602 -109.45748047 231.76158203 -110.46386719 231.20410156 C-111.48641602 230.64174805 -112.50896484 230.07939453 -113.5625 229.5 C-123.56148038 223.95965996 -133.46381241 218.27611947 -143.29516602 212.44335938 C-144.70366821 211.61288086 -144.70366821 211.61288086 -146.140625 210.765625 C-146.96079102 210.27868164 -147.78095703 209.79173828 -148.62597656 209.29003906 C-151.37050989 207.73871022 -151.37050989 207.73871022 -156 206 Z M141.46875 208.53515625 C140.52531738 209.09009766 139.58188477 209.64503906 138.60986328 210.21679688 C137.5836084 210.82587891 136.55735352 211.43496094 135.5 212.0625 C133.3207082 213.34572434 131.14100591 214.62825174 128.9609375 215.91015625 C128.39535126 216.24334869 127.82976501 216.57654114 127.24703979 216.91983032 C119.83262154 221.28429612 112.36841966 225.56235251 104.90820312 229.84790039 C94.38288389 235.15241437 94.38288389 235.15241437 85 242 C84.90563471 244.23929886 84.88257673 246.4816175 84.88647461 248.72290039 C84.88632858 249.4253035 84.88618256 250.1277066 84.8860321 250.85139465 C84.88673128 253.18351278 84.89452383 255.515552 84.90234375 257.84765625 C84.90420792 259.46048438 84.90563182 261.07331307 84.90663147 262.68614197 C84.91045677 266.93915357 84.92028715 271.19213124 84.93133545 275.44512939 C84.94154931 279.7817743 84.94612904 284.11842467 84.95117188 288.45507812 C84.96190941 296.97006769 84.97898597 305.48502963 85 314 C88.93195472 312.7282356 92.36655837 311.38267032 95.921875 309.26953125 C97.31805054 308.44654541 97.31805054 308.44654541 98.74243164 307.60693359 C99.7349292 307.01477051 100.72742676 306.42260742 101.75 305.8125 C103.88891813 304.55009515 106.02825663 303.28840235 108.16796875 302.02734375 C109.28091309 301.36976074 110.39385742 300.71217773 111.54052734 300.03466797 C117.35698253 296.60643164 123.2115642 293.24390987 129.0625 289.875 C130.14950195 289.24827393 131.23650391 288.62154785 132.35644531 287.97583008 C137.56520341 284.97357112 142.78003822 281.98283531 148 279 C148 254.91 148 230.82 148 206 C145.24259245 206 143.84195193 207.13027418 141.46875 208.53515625 Z " fill="#F37D1A" transform="translate(260,87)"/>
<path d="M0 0 C4.49291896 0.80230696 5.53114774 2.19212379 8.5 5.625 C10.24745437 8.28429595 11.72952834 11.04830815 13.1875 13.875 C13.82715698 15.10923706 13.82715698 15.10923706 14.47973633 16.3684082 C26.71416403 40.56160238 35.30384674 66.82973598 39.5 93.625 C39.67732666 94.73351318 39.85465332 95.84202637 40.03735352 96.98413086 C41.72018182 108.71599795 41.8563122 120.35028419 41.8125 132.1875 C41.80976578 133.71661011 41.80976578 133.71661011 41.80697632 135.27661133 C41.76280351 149.93104988 41.44406591 164.22071623 38.5 178.625 C38.32307617 179.52395996 38.14615234 180.42291992 37.96386719 181.34912109 C36.66486192 187.8250774 35.15899793 194.23228052 33.5 200.625 C33.28504883 201.45563965 33.07009766 202.2862793 32.84863281 203.14208984 C21.96076824 244.19536097 -0.09785683 281.18665796 -29.5 311.625 C-30.09893066 312.24584473 -30.69786133 312.86668945 -31.31494141 313.50634766 C-38.97768393 321.40638801 -46.7162852 328.95942896 -55.5 335.625 C-56.06686523 336.0576416 -56.63373047 336.4902832 -57.21777344 336.93603516 C-65.67227562 343.36118714 -74.30932026 349.28815359 -83.5 354.625 C-84.15274902 355.01010742 -84.80549805 355.39521484 -85.47802734 355.79199219 C-111.50864276 371.08414502 -139.82407728 381.21985488 -169.5 386.625 C-170.33563477 386.78871094 -171.17126953 386.95242188 -172.03222656 387.12109375 C-199.75331812 392.4137992 -231.83809037 392.02440744 -259.5 386.625 C-260.39702637 386.46402832 -261.29405273 386.30305664 -262.21826172 386.13720703 C-299.22251566 379.44132169 -333.73054606 364.05921043 -364.5 342.625 C-364.33806152 343.16914551 -364.17612305 343.71329102 -364.00927734 344.27392578 C-363.27999265 346.7611092 -362.57737899 349.25509129 -361.875 351.75 C-361.61976563 352.6059375 -361.36453125 353.461875 -361.1015625 354.34375 C-359.70992094 359.36912229 -358.92338514 362.78819666 -361.5 367.625 C-364.71436529 369.76791019 -366.67426609 369.92525791 -370.46484375 370.0859375 C-373.57652399 369.38118075 -374.4928795 368.13773821 -376.5 365.625 C-377.85221096 362.36194537 -378.7856701 359.00064761 -379.734375 355.6015625 C-380.15870819 354.13316422 -380.15870819 354.13316422 -380.59161377 352.63510132 C-381.18600716 350.5674482 -381.77397994 348.49793998 -382.35595703 346.42675781 C-383.246042 343.26406377 -384.15842404 340.10845853 -385.07421875 336.953125 C-385.64977353 334.94048575 -386.22403558 332.92747628 -386.796875 330.9140625 C-387.06868591 329.97325836 -387.34049683 329.03245422 -387.62054443 328.06314087 C-388.8867441 323.51978222 -390.03780729 319.38542049 -389.5 314.625 C-387.70006226 311.92509338 -386.416227 310.0831135 -383.5 308.625 C-382.01718983 308.47168756 -380.52827824 308.37543072 -379.0390625 308.30859375 C-377.63865723 308.24514771 -377.63865723 308.24514771 -376.20996094 308.18041992 C-370.64049818 307.9675321 -365.07146797 307.77780713 -359.5 307.625 C-357.6132959 307.57182617 -357.6132959 307.57182617 -355.68847656 307.51757812 C-351.87561383 307.42324322 -348.06368082 307.3624381 -344.25 307.3125 C-343.0429541 307.282771 -341.8359082 307.25304199 -340.59228516 307.22241211 C-339.4635498 307.2147583 -338.33481445 307.20710449 -337.171875 307.19921875 C-336.1725293 307.18463623 -335.17318359 307.17005371 -334.14355469 307.1550293 C-330.75349073 307.75771429 -329.60810391 308.95664785 -327.5 311.625 C-326.35304062 315.21880604 -326.183677 316.89246252 -327.6875 320.375 C-330.15255915 323.43507343 -332.16138205 324.45862818 -336.06542969 324.94384766 C-337.47937012 324.990979 -337.47937012 324.990979 -338.921875 325.0390625 C-339.94667969 325.07773437 -340.97148437 325.11640625 -342.02734375 325.15625 C-343.62255859 325.20265625 -343.62255859 325.20265625 -345.25 325.25 C-346.32894531 325.28867187 -347.40789062 325.32734375 -348.51953125 325.3671875 C-351.17951775 325.46134631 -353.8394994 325.54697387 -356.5 325.625 C-335.10969772 341.78809014 -311.02706562 353.55592147 -285.5 361.625 C-284.75427734 361.86202637 -284.00855469 362.09905273 -283.24023438 362.34326172 C-223.54912801 380.96018959 -158.29728052 373.35231775 -102.99755859 344.95458984 C-85.80570278 335.80240541 -70.05088642 324.52894684 -55.5 311.625 C-54.67387207 310.89361816 -54.67387207 310.89361816 -53.83105469 310.14746094 C-7.07915047 268.49675114 20.18521985 208.59062609 24.09228516 146.38134766 C26.40003672 102.39117304 16.82446629 57.92844221 -5.04589844 19.58691406 C-7.72425684 14.76126761 -9.30554709 11.30698394 -8.5 5.625 C-5.90783917 1.93313458 -4.45850936 0.79616239 0 0 Z " fill="#F38419" transform="translate(470.5,122.375)"/>
<path d="M0 0 C0.90054108 -0.00701431 1.80108215 -0.01402863 2.72891235 -0.02125549 C5.61750351 -0.03865402 8.50588962 -0.0451074 11.39453125 -0.046875 C12.38190277 -0.04754974 13.36927429 -0.04822449 14.38656616 -0.04891968 C28.87791389 -0.03317157 42.94723376 0.41971425 57.20703125 3.203125 C58.5525708 3.44458252 58.5525708 3.44458252 59.92529297 3.69091797 C96.92954691 10.38680331 131.43757731 25.76891457 162.20703125 47.203125 C161.63082031 45.37587891 161.63082031 45.37587891 161.04296875 43.51171875 C160.55500929 41.88831517 160.06808465 40.26460029 159.58203125 38.640625 C159.19917969 37.44083008 159.19917969 37.44083008 158.80859375 36.21679688 C157.21221251 30.78466627 156.89939626 27.44590975 159.20703125 22.203125 C162.42139654 20.06021481 164.38129734 19.90286709 168.171875 19.7421875 C171.28355524 20.44694425 172.19991075 21.69038679 174.20703125 24.203125 C175.55924221 27.46617963 176.49270135 30.82747739 177.44140625 34.2265625 C177.72429504 35.20549469 178.00718384 36.18442688 178.29864502 37.19302368 C178.89303841 39.2606768 179.48101119 41.33018502 180.06298828 43.40136719 C180.95307325 46.56406123 181.86545529 49.71966647 182.78125 52.875 C183.35680478 54.88763925 183.93106683 56.90064872 184.50390625 58.9140625 C184.77571716 59.85486664 185.04752808 60.79567078 185.32757568 61.76498413 C186.59436598 66.31046208 187.73778268 70.44013599 187.20703125 75.203125 C185.05612674 78.54073545 184.00290326 79.93783433 180.20703125 81.203125 C178.76410392 81.35069911 177.31599931 81.45052577 175.8671875 81.51953125 C174.98208496 81.56190918 174.09698242 81.60428711 173.18505859 81.64794922 C167.85972282 81.86288908 162.5343707 82.04541502 157.20703125 82.203125 C155.97162598 82.2438916 154.7362207 82.2846582 153.46337891 82.32666016 C149.66961341 82.44030386 145.87693654 82.514526 142.08203125 82.578125 C140.8794165 82.61623291 139.67680176 82.65434082 138.43774414 82.69360352 C129.03002599 82.78410747 129.03002599 82.78410747 125.9375 79.8671875 C123.80411304 76.58283105 123.48614171 75.04786924 124.20703125 71.203125 C126.35793576 67.86551455 127.41115924 66.46841567 131.20703125 65.203125 C132.978701 65.05476552 134.75470737 64.95542482 136.53125 64.88671875 C137.55927734 64.84482422 138.58730469 64.80292969 139.64648438 64.75976562 C140.71833984 64.72044922 141.79019531 64.68113281 142.89453125 64.640625 C143.97798828 64.59744141 145.06144531 64.55425781 146.17773438 64.50976562 C148.85403916 64.40365662 151.53043651 64.30160139 154.20703125 64.203125 C144.04350246 56.52328813 133.51766803 50.0590703 122.20703125 44.203125 C121.45292969 43.81237793 120.69882812 43.42163086 119.921875 43.01904297 C63.16382477 14.0193788 -2.20828778 10.38833246 -62.66357422 29.28466797 C-105.28942282 43.10552466 -144.97676364 70.02077669 -172.79296875 105.203125 C-173.4478125 105.99074219 -174.10265625 106.77835937 -174.77734375 107.58984375 C-193.52735223 130.27735401 -206.89741897 157.27601582 -215.79296875 185.203125 C-216.15068359 186.32605957 -216.15068359 186.32605957 -216.515625 187.47167969 C-222.23716337 205.8214706 -225.85166769 225.3283446 -226.03125 244.57421875 C-226.04099854 245.4458667 -226.05074707 246.31751465 -226.06079102 247.21557617 C-226.23280409 266.58424839 -225.96744976 285.20014655 -221.79296875 304.203125 C-221.6110498 305.07259766 -221.42913086 305.94207031 -221.24169922 306.83789062 C-216.2608362 330.25106265 -207.92555803 354.4635245 -195.15942383 374.80615234 C-193.23593822 378.18024234 -193.24729783 380.38342855 -193.79296875 384.203125 C-196.38512958 387.89499042 -197.83445939 389.03196261 -202.29296875 389.828125 C-206.76940827 389.0287608 -207.83260452 387.61230403 -210.79296875 384.203125 C-212.4050535 381.74577355 -213.7666798 379.19272956 -215.10546875 376.578125 C-215.49009277 375.83594727 -215.8747168 375.09376953 -216.27099609 374.32910156 C-232.7512547 341.96368601 -243.70349203 304.86330959 -244.03125 268.3671875 C-244.04104385 267.45812149 -244.05083771 266.54905548 -244.06092834 265.61244202 C-244.23591364 245.14896206 -243.9959627 225.31952362 -239.79296875 205.203125 C-239.47948486 203.67800293 -239.47948486 203.67800293 -239.15966797 202.12207031 C-230.38079645 160.81205466 -211.37790219 122.18121451 -183.79296875 90.203125 C-183.15875 89.45804687 -182.52453125 88.71296875 -181.87109375 87.9453125 C-170.0599536 74.44032667 -157.30936647 61.76893757 -142.79296875 51.203125 C-141.64302044 50.34663434 -140.49328286 49.48986067 -139.34375 48.6328125 C-131.15207349 42.5921836 -122.63651797 37.23307429 -113.79296875 32.203125 C-113.16116699 31.83864258 -112.52936523 31.47416016 -111.87841797 31.09863281 C-78.56583742 12.03161904 -38.48295305 0.20190402 0 0 Z " fill="#F16F1D" transform="translate(243.79296875,-0.203125)"/>
</svg>
